<svg width="32" height="32" viewBox="0 0 32 32" fill="none" xmlns="http://www.w3.org/2000/svg">
<path d="M24 18.6666V14.6666H20V11.9999H24V7.99992H26.6667V11.9999H30.6667V14.6666H26.6667V18.6666H24ZM12 15.9999C10.5334 15.9999 9.27782 15.4777 8.23337 14.4333C7.18893 13.3888 6.66671 12.1333 6.66671 10.6666C6.66671 9.19992 7.18893 7.94436 8.23337 6.89992C9.27782 5.85547 10.5334 5.33325 12 5.33325C13.4667 5.33325 14.7223 5.85547 15.7667 6.89992C16.8112 7.94436 17.3334 9.19992 17.3334 10.6666C17.3334 12.1333 16.8112 13.3888 15.7667 14.4333C14.7223 15.4777 13.4667 15.9999 12 15.9999ZM1.33337 26.6666V22.9333C1.33337 22.1777 1.52804 21.483 1.91737 20.8493C2.30671 20.2155 2.82315 19.7324 3.46671 19.3999C4.84449 18.711 6.24449 18.1941 7.66671 17.8493C9.08893 17.5044 10.5334 17.3324 12 17.3333C13.4667 17.3333 14.9112 17.5057 16.3334 17.8506C17.7556 18.1955 19.1556 18.7119 20.5334 19.3999C21.1778 19.7333 21.6947 20.2168 22.084 20.8506C22.4734 21.4844 22.6676 22.1786 22.6667 22.9333V26.6666H1.33337ZM4.00004 23.9999H20V22.9333C20 22.6888 19.9387 22.4666 19.816 22.2666C19.6934 22.0666 19.5325 21.911 19.3334 21.7999C18.1334 21.1999 16.9223 20.7501 15.7 20.4506C14.4778 20.151 13.2445 20.0008 12 19.9999C10.7556 19.9999 9.52226 20.1501 8.30004 20.4506C7.07782 20.751 5.86671 21.2008 4.66671 21.7999C4.46671 21.911 4.30537 22.0666 4.18271 22.2666C4.06004 22.4666 3.99915 22.6888 4.00004 22.9333V23.9999ZM12 13.3333C12.7334 13.3333 13.3614 13.0719 13.884 12.5493C14.4067 12.0266 14.6676 11.399 14.6667 10.6666C14.6667 9.93325 14.4054 9.30525 13.8827 8.78259C13.36 8.25992 12.7325 7.99903 12 7.99992C11.2667 7.99992 10.6387 8.26125 10.116 8.78392C9.59337 9.30659 9.33249 9.93414 9.33337 10.6666C9.33337 11.3999 9.59471 12.0279 10.1174 12.5506C10.64 13.0733 11.2676 13.3341 12 13.3333Z" fill="white"/>
</svg>
