<svg width="32" height="32" viewBox="0 0 32 32" fill="none" xmlns="http://www.w3.org/2000/svg">
<path d="M23.9997 18.6666V14.6666H19.9997V11.9999H23.9997V7.99992H26.6663V11.9999H30.6663V14.6666H26.6663V18.6666H23.9997ZM11.9997 15.9999C10.533 15.9999 9.27745 15.4777 8.23301 14.4333C7.18856 13.3888 6.66634 12.1333 6.66634 10.6666C6.66634 9.19992 7.18856 7.94436 8.23301 6.89992C9.27745 5.85547 10.533 5.33325 11.9997 5.33325C13.4663 5.33325 14.7219 5.85547 15.7663 6.89992C16.8108 7.94436 17.333 9.19992 17.333 10.6666C17.333 12.1333 16.8108 13.3888 15.7663 14.4333C14.7219 15.4777 13.4663 15.9999 11.9997 15.9999ZM1.33301 26.6666V22.9333C1.33301 22.1777 1.52767 21.483 1.91701 20.8493C2.30634 20.2155 2.82279 19.7324 3.46634 19.3999C4.84412 18.711 6.24412 18.1941 7.66634 17.8493C9.08856 17.5044 10.533 17.3324 11.9997 17.3333C13.4663 17.3333 14.9108 17.5057 16.333 17.8506C17.7552 18.1955 19.1552 18.7119 20.533 19.3999C21.1775 19.7333 21.6943 20.2168 22.0837 20.8506C22.473 21.4844 22.6672 22.1786 22.6663 22.9333V26.6666H1.33301ZM3.99967 23.9999H19.9997V22.9333C19.9997 22.6888 19.9383 22.4666 19.8157 22.2666C19.693 22.0666 19.5321 21.911 19.333 21.7999C18.133 21.1999 16.9219 20.7501 15.6997 20.4506C14.4775 20.151 13.2441 20.0008 11.9997 19.9999C10.7552 19.9999 9.5219 20.1501 8.29967 20.4506C7.07745 20.751 5.86634 21.2008 4.66634 21.7999C4.46634 21.911 4.30501 22.0666 4.18234 22.2666C4.05967 22.4666 3.99879 22.6888 3.99967 22.9333V23.9999ZM11.9997 13.3333C12.733 13.3333 13.361 13.0719 13.8837 12.5493C14.4063 12.0266 14.6672 11.399 14.6663 10.6666C14.6663 9.93325 14.405 9.30525 13.8823 8.78259C13.3597 8.25992 12.7321 7.99903 11.9997 7.99992C11.2663 7.99992 10.6383 8.26125 10.1157 8.78392C9.59301 9.30659 9.33212 9.93414 9.33301 10.6666C9.33301 11.3999 9.59434 12.0279 10.117 12.5506C10.6397 13.0733 11.2672 13.3341 11.9997 13.3333Z" fill="#27AE60"/>
</svg>
