<svg width="35" height="16" viewBox="0 0 35 16" fill="none" xmlns="http://www.w3.org/2000/svg">
<path d="M31.3963 8.604C31.3838 9.18184 30.5269 9.64844 29.4718 9.64844C28.4168 9.64844 27.5603 9.18184 27.5477 8.604C25.9334 8.75169 24.6688 10.1086 24.6688 11.7608C24.6688 13.5118 26.0883 13.5076 27.8397 13.5076H31.1047C32.8557 13.5076 34.2756 13.5122 34.2756 11.7608C34.2748 10.1086 33.0106 8.75131 31.3963 8.604Z" fill="#F5F5F5"/>
<path d="M29.4718 8.50427C28.4012 8.50427 27.5158 7.34328 27.3738 5.83643H27.0827C27.2444 7.55285 28.252 8.87519 29.4718 8.87519C30.6913 8.87519 31.6996 7.55285 31.8614 5.83643H31.5698C31.4274 7.34328 30.5428 8.50427 29.4718 8.50427Z" fill="#F5F5F5"/>
<path d="M26.9688 5.47913H31.9749C32.1704 5.47913 32.3284 5.32082 32.3284 5.12606C32.3284 4.93091 32.1704 4.7726 31.9749 4.7726H31.8788C31.8788 3.83485 31.3416 3.02238 30.5584 2.62564L30.3591 3.75664C30.3435 3.84624 30.2657 3.90888 30.1776 3.90888C30.167 3.90888 30.156 3.90812 30.1453 3.90622C30.0447 3.88876 29.9783 3.79309 29.9954 3.69248L30.2235 2.40051C30.1377 2.26421 29.9863 2.1731 29.8131 2.1731H29.1301C28.957 2.1731 28.8059 2.26421 28.7201 2.40051L28.9479 3.69248C28.9657 3.79309 28.8989 3.88876 28.7983 3.90622C28.7873 3.90812 28.7763 3.90888 28.766 3.90888C28.678 3.90888 28.5998 3.84586 28.5842 3.75664L28.3849 2.62564C27.6016 3.02238 27.0644 3.83485 27.0644 4.7726H26.9684C26.7732 4.7726 26.6153 4.93091 26.6153 5.12606C26.6157 5.32082 26.7736 5.47913 26.9688 5.47913Z" fill="#F5F5F5"/>
<path d="M7.29804 9.14084C7.82766 9.20006 8.29198 9.29156 8.29198 9.29156C7.23578 8.71069 7.26274 6.626 7.26274 6.626C7.27602 6.34126 7.27337 6.08006 7.26008 5.83594H6.84208C6.8417 5.86479 6.84132 5.89251 6.84056 5.91946C6.83752 6.08347 6.83411 6.20648 6.82993 6.23382C6.79007 6.76837 6.65377 7.2604 6.448 7.67347C6.07328 8.42481 5.46659 8.91304 4.78093 8.91342C4.09565 8.91304 3.48896 8.42481 3.11386 7.67347C2.90809 7.2604 2.77179 6.76799 2.73193 6.23382C2.72813 6.20648 2.72433 6.08347 2.7213 5.91946C2.72092 5.89251 2.72054 5.86441 2.72016 5.83594H2.30178C2.28849 6.08006 2.28583 6.34126 2.29912 6.626C2.29912 6.626 2.32646 8.71069 1.26987 9.29156C1.26987 9.29156 1.73457 9.20006 2.26419 9.14084C1.01323 9.53492 0.10585 10.7031 0.10585 12.0839C0.10585 13.7886 1.48742 13.4871 3.19207 13.4871H4.78093H6.37017C8.07444 13.4871 9.45601 13.7886 9.45601 12.0839C9.45601 10.7031 8.54901 9.53492 7.29804 9.14084ZM5.49468 9.95026L4.78093 11.1105L4.06718 9.95026C3.43733 9.80713 2.97984 9.48139 2.9153 9.093C3.32077 9.08313 3.66626 9.12375 3.75814 9.27486L3.48365 8.70423C3.85533 9.06453 4.30104 9.27486 4.78093 9.27486C5.26081 9.27486 5.70615 9.06453 6.07783 8.70423L5.80334 9.27486C5.89522 9.12375 6.24108 9.08275 6.64618 9.093C6.58163 9.48101 6.12491 9.80713 5.49468 9.95026Z" fill="#F5F5F5"/>
<path d="M2.27786 5.47916H2.33177H2.7156H3.06033H6.50229H6.84702H7.23047H7.28438C7.47952 5.47916 7.63746 5.32085 7.63746 5.12608C7.63746 4.93094 7.47952 4.77262 7.28438 4.77262H7.18833C7.18833 3.83487 6.65111 3.02279 5.86826 2.62567L5.79765 3.02507L5.66857 3.75629C5.653 3.84588 5.57517 3.90891 5.48709 3.90891C5.47646 3.90891 5.46583 3.90815 5.4552 3.90587C5.45026 3.90511 5.44647 3.90359 5.44191 3.90207C5.3489 3.87816 5.28853 3.7878 5.30561 3.69175L5.30789 3.67884L5.44723 2.88801L5.53341 2.40016C5.44761 2.26386 5.29612 2.17236 5.123 2.17236H4.44C4.26688 2.17236 4.11539 2.26348 4.02997 2.40016L4.11615 2.88801L4.25549 3.67884L4.25777 3.69175C4.27447 3.7878 4.2141 3.87816 4.12147 3.90207C4.11691 3.90321 4.11312 3.90511 4.10818 3.90587C4.09755 3.90777 4.08654 3.90891 4.07629 3.90891C3.98821 3.90891 3.91038 3.84588 3.89444 3.75629L3.76573 3.02507L3.69512 2.62567C2.91189 3.02279 2.37505 3.83487 2.37505 4.77262H2.27862C2.08386 4.77262 1.92592 4.93094 1.92592 5.12608C1.92516 5.32085 2.0831 5.47916 2.27786 5.47916Z" fill="#F5F5F5"/>
<path d="M17.0442 8.69361C15.6672 8.69361 14.5293 7.20119 14.3463 5.26343H13.972C14.1801 7.47037 15.4758 9.17084 17.0442 9.17084C18.6122 9.17084 19.9079 7.47037 20.116 5.26343H19.7416C19.5586 7.20119 18.4212 8.69361 17.0442 8.69361Z" fill="#F5F5F5"/>
<path d="M19.7443 8.76581C19.7375 8.76505 19.7302 8.76429 19.7227 8.76315C19.6653 8.75518 19.6072 8.74872 19.5491 8.74341C19.5491 8.74948 19.5473 8.75518 19.5473 8.76087C19.5465 8.77796 19.5435 8.79466 19.5412 8.81213C19.5305 8.90856 19.5017 9.00271 19.4565 9.09269C19.1532 9.85618 18.1721 11.3027 17.5943 12.1239L17.4755 10.4177C17.644 10.3307 17.7894 10.188 17.8825 10.0217C17.9493 9.9025 17.9903 9.77189 17.9903 9.63864C17.9903 9.63864 17.559 9.8296 17.1194 9.8296C17.0943 9.8296 17.0692 9.82922 17.0442 9.8277C17.0191 9.82922 16.9941 9.8296 16.969 9.8296C16.529 9.8296 16.0981 9.63864 16.0981 9.63864C16.0981 9.77189 16.1391 9.90212 16.2059 10.0217C16.2989 10.188 16.4439 10.3307 16.6129 10.4177L16.4941 12.1239C15.9162 11.3027 14.9352 9.8558 14.6319 9.09269C14.5867 9.00271 14.5582 8.90856 14.5472 8.81213C14.5453 8.79466 14.5419 8.77796 14.5411 8.76087C14.5411 8.75518 14.5392 8.74948 14.5392 8.74341C14.4811 8.74872 14.4234 8.75518 14.3657 8.76315C14.3585 8.76429 14.3509 8.76505 14.3441 8.76581C12.3368 9.04523 10.792 10.7681 10.792 12.8528C10.792 15.1323 12.6398 15.1269 14.9193 15.1269H17.0446H19.1695C21.4489 15.1269 23.2967 15.1323 23.2967 12.8528C23.2963 10.7685 21.7519 9.04561 19.7443 8.76581Z" fill="#F5F5F5"/>
<path d="M13.8258 4.80447H13.9302H14.4944H14.7116H19.3764H19.5936H20.1577H20.2621C20.5127 4.80447 20.7158 4.60135 20.7158 4.3504C20.7158 4.09983 20.5127 3.89671 20.2621 3.89671H20.1384C20.1384 2.69055 19.4482 1.6465 18.4409 1.13586L18.3487 1.65864L18.185 2.58956C18.1645 2.70497 18.0647 2.78584 17.9516 2.78584C17.9379 2.78584 17.9242 2.7847 17.9102 2.78204C17.7811 2.75926 17.6953 2.63626 17.7177 2.50717L17.8988 1.48097L18.0108 0.846181C17.9007 0.670401 17.7059 0.553467 17.4838 0.553467H16.6057C16.3828 0.553467 16.1881 0.670401 16.0783 0.846181L16.1903 1.48097L16.3711 2.50717C16.3942 2.63626 16.3077 2.75926 16.1789 2.78204C16.1649 2.78432 16.1512 2.78584 16.1372 2.78584C16.0244 2.78584 15.9242 2.70459 15.9041 2.58956L15.7397 1.65864L15.6474 1.13586C14.6406 1.6465 13.95 2.69055 13.95 3.89671H13.8262C13.5753 3.89671 13.3722 4.10021 13.3722 4.3504C13.3718 4.60135 13.5753 4.80447 13.8258 4.80447Z" fill="#F5F5F5"/>
</svg>
