<svg width="32" height="32" viewBox="0 0 32 32" fill="none" xmlns="http://www.w3.org/2000/svg">
<path d="M14.6667 26.6666C14.2889 26.6666 13.972 26.5386 13.716 26.2826C13.46 26.0266 13.3325 25.7101 13.3333 25.3333V17.3333L5.60001 7.46659C5.26668 7.02214 5.21646 6.55547 5.44935 6.06659C5.68223 5.5777 6.08801 5.33325 6.66668 5.33325H25.3333C25.9111 5.33325 26.3169 5.5777 26.5507 6.06659C26.7845 6.55547 26.7342 7.02214 26.4 7.46659L18.6667 17.3333V25.3333C18.6667 25.711 18.5387 26.0279 18.2827 26.2839C18.0267 26.5399 17.7102 26.6675 17.3333 26.6666H14.6667Z" fill="white"/>
</svg>
