<svg width="32" height="32" viewBox="0 0 32 32" fill="none" xmlns="http://www.w3.org/2000/svg">
<path fill-rule="evenodd" clip-rule="evenodd" d="M21.3337 7C21.4676 7.00009 21.6 7.02705 21.7232 7.07927C21.8464 7.13149 21.9579 7.20791 22.0511 7.304L27.3844 12.804C27.4807 12.8972 27.5574 13.0087 27.6097 13.1321C27.6621 13.2554 27.6892 13.388 27.6893 13.522C27.6894 13.656 27.6626 13.7887 27.6104 13.9121C27.5582 14.0356 27.4818 14.1473 27.3856 14.2406C27.2894 14.3339 27.1755 14.4069 27.0505 14.4553C26.9256 14.5038 26.7922 14.5266 26.6582 14.5224C26.5243 14.5182 26.3926 14.4872 26.2708 14.4311C26.1491 14.3751 26.0399 14.2951 25.9497 14.196L22.3337 10.468V24C22.3337 24.2652 22.2284 24.5196 22.0408 24.7071C21.8533 24.8946 21.5989 25 21.3337 25C21.0685 25 20.8142 24.8946 20.6266 24.7071C20.4391 24.5196 20.3337 24.2652 20.3337 24V10.4667L16.7177 14.196C16.6275 14.2951 16.5183 14.3751 16.3966 14.4311C16.2749 14.4872 16.1432 14.5182 16.0092 14.5224C15.8753 14.5266 15.7419 14.5038 15.6169 14.4553C15.492 14.4069 15.378 14.3339 15.2818 14.2406C15.1857 14.1473 15.1092 14.0356 15.0571 13.9121C15.0049 13.7887 14.9781 13.656 14.9782 13.522C14.9783 13.388 15.0054 13.2554 15.0577 13.1321C15.1101 13.0087 15.1867 12.8972 15.2831 12.804L20.6164 7.304C20.7095 7.20791 20.821 7.13149 20.9442 7.07927C21.0675 7.02705 21.1999 7.00009 21.3337 7ZM10.6671 7C10.9323 7 11.1866 7.10536 11.3742 7.29289C11.5617 7.48043 11.6671 7.73478 11.6671 8V21.5333L15.2831 17.804C15.3733 17.7049 15.4825 17.6249 15.6042 17.5689C15.7259 17.5128 15.8576 17.4818 15.9916 17.4776C16.1255 17.4734 16.2589 17.4962 16.3839 17.5447C16.5088 17.5931 16.6228 17.6661 16.719 17.7594C16.8151 17.8527 16.8916 17.9644 16.9437 18.0879C16.9959 18.2113 17.0227 18.344 17.0226 18.478C17.0225 18.612 16.9954 18.7446 16.9431 18.8679C16.8907 18.9913 16.8141 19.1028 16.7177 19.196L11.3844 24.696C11.2912 24.792 11.1797 24.8682 11.0565 24.9203C10.9333 24.9724 10.8008 24.9993 10.6671 24.9993C10.5333 24.9993 10.4009 24.9724 10.2777 24.9203C10.1544 24.8682 10.0429 24.792 9.94973 24.696L4.6164 19.196C4.52006 19.1028 4.44343 18.9913 4.39106 18.8679C4.33868 18.7446 4.31164 18.612 4.31152 18.478C4.31141 18.344 4.33823 18.2113 4.39039 18.0879C4.44255 17.9644 4.51899 17.8527 4.61517 17.7594C4.71135 17.6661 4.8253 17.5931 4.95025 17.5447C5.07521 17.4962 5.20862 17.4734 5.34256 17.4776C5.4765 17.4818 5.60824 17.5128 5.72995 17.5689C5.85166 17.6249 5.96086 17.7049 6.05106 17.804L9.66706 21.532V8C9.66706 7.73478 9.77242 7.48043 9.95996 7.29289C10.1475 7.10536 10.4018 7 10.6671 7Z" fill="white"/>
</svg>
